<?xml version="1.0" standalone="no"?>
<!DOCTYPE svg PUBLIC "-//W3C//DTD SVG 20010904//EN"
 "http://www.w3.org/TR/2001/REC-SVG-20010904/DTD/svg10.dtd">
<svg version="1.0" xmlns="http://www.w3.org/2000/svg"
 width="1250.000000pt" height="661.000000pt" viewBox="0 0 1250.000000 661.000000"
 preserveAspectRatio="xMidYMid meet">

<g transform="translate(0.000000,661.000000) scale(0.100000,-0.100000)"
fill="#000000" stroke="none">
<path d="M5935 6350 c-38 -4 -124 -8 -189 -9 -66 0 -145 -5 -175 -10 -31 -6
-121 -20 -201 -31 -153 -23 -155 -23 -320 -66 -455 -116 -792 -317 -970 -580
-42 -61 -65 -105 -100 -189 -49 -115 -137 -448 -160 -600 -57 -381 -51 -650
24 -1010 9 -44 21 -91 26 -105 5 -14 18 -59 30 -100 13 -41 29 -90 37 -108 40
-91 108 -325 138 -472 66 -329 79 -497 71 -921 -3 -184 -10 -372 -16 -419 -33
-287 -21 -389 66 -563 137 -273 422 -532 789 -717 135 -68 250 -120 266 -120
5 0 17 -4 27 -9 42 -22 242 -76 342 -92 311 -49 413 -58 655 -59 218 0 298 5
475 30 292 42 421 75 635 162 510 209 908 568 1028 928 35 104 40 195 23 370
-28 284 -33 350 -35 545 -4 362 52 822 131 1075 31 101 58 183 68 205 51 115
123 390 151 579 36 233 29 611 -16 831 -38 183 -71 312 -130 504 -154 500
-722 831 -1595 931 -229 26 -895 38 -1075 20z m1210 -262 c28 -6 57 -11 65
-10 8 0 33 -3 55 -8 22 -5 72 -17 110 -25 82 -19 201 -52 230 -65 11 -5 49
-19 85 -30 36 -12 117 -47 180 -78 63 -31 117 -55 119 -53 2 1 7 -2 10 -7 3
-5 31 -25 61 -44 57 -36 135 -109 181 -169 38 -49 106 -189 120 -245 7 -27 16
-57 21 -67 5 -10 11 -28 14 -40 2 -12 6 -34 10 -49 10 -47 -3 -31 -21 25 -9
28 -20 61 -25 72 -5 11 -18 44 -30 72 -11 29 -31 71 -45 93 -14 22 -25 43 -25
47 0 5 -18 32 -40 61 -22 29 -40 56 -40 60 0 4 -23 23 -51 42 -28 19 -56 40
-62 45 -38 33 -272 157 -347 184 -19 7 -44 17 -55 21 -11 4 -38 15 -60 23 -38
15 -207 66 -285 87 -42 11 -220 47 -272 55 -21 3 -38 10 -38 16 0 10 52 5 135
-13z m320 -328 c175 -25 331 -84 464 -176 119 -84 236 -216 296 -335 38 -74
30 -70 -25 14 -60 91 -188 222 -264 271 -31 20 -61 36 -66 36 -6 0 -10 4 -10
9 0 5 -10 13 -22 17 -13 4 -33 14 -45 24 -12 9 -44 23 -70 30 -26 8 -50 17
-53 20 -6 9 -153 45 -241 59 -92 15 -2267 15 -2376 0 -67 -9 -118 -23 -208
-55 -14 -5 -17 -4 -10 4 25 27 187 68 340 86 75 8 2226 5 2290 -4z m-1790 -99
c7 -12 -29 -33 -39 -24 -3 3 -6 12 -6 20 0 15 36 18 45 4z m93 -64 c2 -37 6
-67 10 -67 5 0 23 16 42 35 34 35 70 46 70 22 0 -8 -16 -28 -35 -46 l-36 -32
20 -27 c10 -15 28 -44 40 -64 l21 -38 -25 0 c-14 0 -25 4 -25 8 0 5 -8 18 -17
30 -10 11 -23 28 -29 38 -16 27 -34 8 -34 -37 0 -32 -4 -39 -19 -39 -11 0 -21
9 -25 23 -8 31 -8 252 1 261 4 4 14 5 23 4 11 -3 16 -19 18 -71z m205 66 c11
-10 -13 -32 -29 -26 -20 8 -17 33 4 33 10 0 22 -3 25 -7z m797 -28 c0 -13 10
-31 23 -40 l22 -16 -22 -16 c-20 -13 -23 -24 -23 -84 0 -58 3 -70 20 -79 25
-13 17 -30 -14 -30 -37 0 -46 19 -46 102 0 61 -3 80 -15 84 -8 4 -15 12 -15
19 0 7 7 18 15 25 8 7 15 20 15 29 0 20 20 42 32 35 4 -3 8 -16 8 -29z m104
26 c3 -5 -1 -14 -9 -21 -12 -10 -18 -10 -30 0 -18 15 -11 30 15 30 10 0 21 -4
24 -9z m88 4 c9 -4 12 -23 10 -70 -2 -36 0 -65 4 -65 4 0 22 16 40 35 29 32
74 48 74 25 0 -5 -13 -25 -30 -43 -16 -19 -30 -39 -30 -43 0 -5 16 -33 35 -62
20 -29 33 -57 30 -62 -13 -21 -37 -8 -66 38 -16 26 -35 47 -42 47 -7 0 -14
-19 -17 -45 -4 -37 -9 -45 -25 -45 -19 0 -20 8 -23 134 -3 163 -1 171 40 156z
m-1375 -85 c2 -8 -26 -51 -62 -95 l-64 -80 65 -3 c45 -2 64 -7 61 -15 -8 -24
-177 -20 -177 4 0 12 89 132 102 137 4 2 8 10 8 18 0 10 -13 14 -49 14 -28 0
-53 5 -56 10 -14 23 10 31 88 28 63 -2 82 -6 84 -18z m79 11 c5 -6 8 -55 6
-110 -3 -92 -5 -101 -23 -101 -18 0 -19 8 -19 103 0 114 7 136 36 108z m304
-101 c0 -103 -1 -110 -20 -110 -19 0 -20 7 -20 103 0 105 3 117 27 117 10 0
13 -25 13 -110z m153 101 c20 -3 5 -31 -18 -31 -34 0 -45 -27 -45 -109 0 -63
-2 -71 -19 -71 -22 0 -31 35 -31 125 0 87 2 91 58 89 26 -1 50 -2 55 -3z m164
-3 c10 -8 25 -7 54 2 35 12 45 12 68 -1 25 -14 26 -19 29 -104 3 -99 0 -117
-23 -109 -12 5 -15 23 -15 83 0 75 -9 101 -36 101 -31 0 -44 -31 -44 -106 0
-72 -1 -75 -22 -72 -21 3 -23 9 -28 88 -5 78 -7 85 -27 88 -35 5 -53 -33 -53
-110 0 -61 -2 -68 -20 -68 -19 0 -20 7 -20 103 0 57 2 106 4 108 10 9 121 7
133 -3z m358 -13 c23 -22 25 -32 25 -116 0 -90 0 -91 -22 -84 -26 7 -29 7 -81
-1 -49 -8 -87 15 -87 54 0 15 4 32 8 38 12 18 49 34 80 34 38 0 60 24 42 45
-17 21 -54 19 -75 -5 -18 -19 -55 -28 -55 -12 0 16 33 54 54 62 41 17 86 11
111 -15z m221 15 c12 -12 7 -200 -5 -213 -4 -4 -14 -5 -22 -2 -11 4 -14 27
-13 104 1 115 11 140 40 111z m1157 -284 c18 -7 47 -30 65 -50 l33 -37 -3
-624 c-3 -615 -3 -624 -24 -652 -11 -15 -38 -38 -60 -50 l-39 -23 -1705 3
c-1697 2 -1705 2 -1744 23 -79 41 -76 12 -76 694 0 676 -2 653 70 695 35 20
48 20 1710 25 921 3 1690 6 1708 8 18 1 47 -4 65 -12z m-2868 -1586 c26 -29
11 -36 -21 -11 -49 39 -93 6 -94 -68 0 -32 6 -51 22 -68 29 -31 49 -29 73 7
18 27 45 41 45 23 -1 -14 -24 -39 -47 -51 -34 -19 -59 -14 -92 17 -26 24 -31
37 -31 75 0 35 6 51 25 71 33 32 93 35 120 5z m206 -9 c46 -47 35 -127 -22
-157 -41 -21 -65 -17 -100 14 -67 60 -32 172 53 172 30 0 46 -7 69 -29z m87
-53 c3 -84 22 -116 61 -103 25 8 33 35 35 117 1 39 6 63 14 66 9 3 12 -17 12
-77 0 -70 -3 -83 -22 -101 -29 -27 -69 -25 -102 5 -24 22 -26 31 -26 100 0 57
3 76 13 73 8 -3 13 -31 15 -80z m237 17 c22 -35 43 -64 48 -65 4 0 7 30 7 66
0 48 3 65 13 62 16 -6 17 -190 1 -195 -7 -2 -30 26 -53 62 -23 36 -46 63 -51
60 -6 -4 -10 -33 -10 -66 0 -33 -4 -59 -10 -59 -6 0 -10 40 -10 100 0 121 9
126 65 35z m226 51 c-21 -12 -23 -20 -25 -94 -1 -109 -20 -107 -24 3 -2 76 -5
85 -22 85 -10 0 -22 5 -25 10 -4 6 17 10 57 10 57 -1 61 -2 39 -14z m921 -3
c24 -22 23 -49 -4 -68 l-23 -15 23 -40 c40 -69 19 -87 -23 -19 -21 33 -31 40
-53 37 -22 -2 -28 -9 -30 -35 -2 -21 -9 -33 -18 -33 -11 0 -14 18 -14 88 0 49
3 92 7 95 14 15 116 7 135 -10z m182 6 c-3 -6 -16 -8 -27 -5 -40 10 -67 -4
-67 -35 0 -28 2 -29 45 -29 25 0 45 -4 45 -10 0 -5 -21 -10 -46 -10 l-45 0 3
-42 3 -43 50 -6 c47 -6 46 -6 -15 -5 l-65 1 -3 84 c-2 46 -1 90 2 98 4 9 25
13 66 13 42 0 59 -3 54 -11z m180 -11 c16 -27 -2 -34 -24 -10 -24 26 -43 28
-60 7 -19 -23 -5 -43 39 -55 36 -9 71 -40 71 -63 0 -17 -54 -57 -76 -57 -30 0
-72 19 -78 36 -9 24 11 24 34 -1 28 -30 51 -32 75 -5 24 26 14 46 -32 60 -67
22 -85 49 -62 91 8 16 19 19 56 17 30 -2 50 -9 57 -20z m163 11 c-9 -5 -22 -7
-27 -4 -22 14 -50 -6 -50 -36 0 -28 2 -29 45 -29 57 0 59 -18 3 -22 -43 -3
-43 -3 -43 -43 l0 -40 50 -6 c47 -6 46 -6 -15 -5 l-65 1 -3 98 -3 97 63 0 c48
-1 59 -3 45 -11z m181 0 c-26 -10 -27 -14 -30 -91 -2 -54 -7 -83 -15 -86 -10
-3 -13 18 -13 80 0 82 -1 84 -27 95 -24 9 -19 11 42 11 58 0 65 -1 43 -9z
m118 -610 c87 -42 132 -99 169 -216 14 -43 14 -59 4 -95 -7 -24 -19 -50 -27
-58 -12 -13 -13 -6 -7 55 5 53 3 79 -9 105 -15 35 -15 35 -16 7 0 -15 -7 -30
-15 -33 -8 -4 -15 -14 -15 -24 0 -29 -29 -53 -46 -39 -28 23 -169 -38 -201
-88 -15 -23 -20 -24 -71 -18 -36 4 -57 3 -61 -4 -5 -7 -19 0 -41 19 -18 16
-34 30 -35 30 -1 0 1 -15 3 -32 l5 -33 -22 19 c-11 11 -21 27 -21 38 0 23 -17
24 -22 1 -3 -15 -4 -15 -20 1 -29 29 -25 153 8 219 14 29 31 59 37 67 24 31
90 74 140 92 71 26 197 20 263 -13z m-1256 -383 c257 -33 466 -127 655 -294
64 -57 144 -169 193 -272 61 -127 59 -123 82 -220 26 -112 26 -262 0 -406 -20
-112 -32 -134 -74 -134 -16 0 -27 -14 -44 -58 -26 -63 -93 -182 -104 -182 -4
0 12 37 36 83 76 150 103 273 108 497 2 90 -1 125 -15 160 -23 59 -58 130 -76
156 l-15 20 -23 -25 c-19 -22 -24 -24 -33 -11 -9 13 -12 13 -21 -2 -13 -23
-28 -23 -37 1 -10 27 -125 171 -164 207 -47 42 -115 94 -122 94 -4 0 25 -31
63 -69 116 -114 188 -242 226 -400 23 -93 16 -276 -13 -366 -86 -271 -312
-486 -567 -540 -88 -18 -240 -19 -325 -1 -164 35 -290 105 -410 226 -140 140
-207 296 -217 500 -4 88 -2 130 11 178 32 126 10 118 -25 -8 -11 -42 -22 -122
-26 -200 -3 -72 -10 -125 -14 -119 -4 7 -6 16 -4 19 2 3 -12 4 -31 2 -19 -2
-34 -8 -34 -12 0 -4 -7 -11 -16 -14 -12 -4 -15 -2 -10 9 3 8 1 15 -5 15 -29 0
17 -195 77 -327 18 -40 29 -73 23 -73 -5 0 -9 5 -9 11 0 6 -11 25 -23 42 -13
18 -39 67 -57 110 -20 46 -40 78 -49 79 -9 0 -23 1 -31 2 -24 2 -37 42 -61
193 -20 132 -21 153 -10 241 34 261 168 502 356 644 113 86 184 128 271 163
116 46 290 84 429 94 12 0 72 -5 135 -13z m-895 -81 c-43 -35 -56 -31 -16 6
18 16 36 27 39 24 4 -3 -7 -17 -23 -30z m1903 -91 c80 -29 195 -13 267 35 22
15 46 31 53 35 22 13 13 -10 -15 -38 -71 -71 -212 -95 -318 -55 -58 21 -125
75 -125 99 0 6 23 -5 51 -26 28 -20 67 -43 87 -50z m-1956 44 c-6 -7 -46 -50
-90 -95 -43 -45 -85 -95 -93 -110 -8 -15 -18 -32 -22 -38 -4 -5 -22 -29 -39
-53 -17 -24 -32 -41 -35 -38 -6 6 41 90 83 151 38 53 181 195 197 195 5 0 5
-5 -1 -12z m1616 -1514 c-7 -16 -18 -33 -25 -37 -20 -13 -15 -26 8 -20 20 6
20 5 5 -25 -44 -86 -227 -215 -390 -276 -135 -51 -201 -61 -386 -61 -198 0
-286 17 -435 83 -182 81 -369 236 -335 277 9 11 8 19 -4 37 -44 62 -1 49 69
-22 113 -114 282 -213 445 -260 95 -28 316 -38 426 -20 194 31 385 129 549
283 44 41 81 74 83 72 1 -1 -3 -15 -10 -31z m28 -30 c-4 -9 -9 -15 -11 -12 -3
3 -3 13 1 22 4 9 9 15 11 12 3 -3 3 -13 -1 -22z"/>
<path d="M6552 5463 c-28 -6 -39 -28 -22 -48 26 -32 90 -5 90 38 0 17 -17 20
-68 10z"/>
<path d="M4579 5236 c-29 -16 -44 -56 -34 -87 5 -15 10 -17 25 -9 12 6 576 10
1591 9 889 0 1575 4 1577 9 1 5 -16 15 -38 22 -83 27 -34 40 159 40 109 1 132
3 116 12 -15 9 -440 13 -1695 15 -1475 3 -1678 2 -1701 -11z"/>
<path d="M6083 4993 c-4 -10 15 -35 60 -79 l66 -64 124 0 125 0 66 64 c99 97
102 95 -190 95 -215 0 -246 -2 -251 -16z"/>
<path d="M6733 4995 c-4 -12 14 -36 58 -81 l63 -64 126 0 125 0 63 62 c97 94
99 92 -186 96 -217 3 -243 1 -249 -13z"/>
<path d="M7348 4948 c-2 -7 -3 -83 -3 -169 0 -140 2 -159 19 -178 27 -30 46
-26 89 19 37 40 37 40 37 128 l0 88 -63 62 c-66 65 -73 70 -79 50z"/>
<path d="M5877 4892 l-57 -58 0 -89 0 -90 43 -37 c84 -75 97 -53 97 166 0 128
-3 166 -13 166 -7 0 -38 -26 -70 -58z"/>
<path d="M6575 4942 c-5 -4 -31 -30 -57 -59 l-48 -52 0 -84 0 -84 40 -41 c43
-46 59 -51 83 -24 14 16 17 44 17 185 0 167 -3 183 -35 159z"/>
<path d="M7177 4892 l-57 -58 0 -90 0 -90 38 -37 c43 -42 61 -46 86 -18 15 16
17 39 14 181 -2 100 -7 165 -13 167 -6 2 -36 -23 -68 -55z"/>
<path d="M7822 4894 c-29 -31 -52 -63 -53 -72 -5 -162 -5 -161 39 -205 38 -37
43 -40 67 -29 l25 12 -2 172 c-2 109 -7 173 -14 175 -5 2 -34 -22 -62 -53z"/>
<path d="M6200 4623 c-23 -9 -70 -55 -70 -69 0 -7 14 -26 31 -43 l31 -31 142
0 c139 0 143 1 174 26 40 33 40 52 1 90 -30 29 -31 29 -162 31 -73 1 -139 0
-147 -4z"/>
<path d="M6850 4623 c-25 -9 -70 -56 -70 -73 0 -9 13 -28 28 -43 28 -27 29
-27 173 -27 l145 0 33 34 c37 38 35 47 -15 90 -31 25 -36 26 -155 25 -68 0
-131 -3 -139 -6z"/>
<path d="M7463 4599 c-24 -18 -43 -37 -43 -41 0 -4 14 -23 31 -43 l31 -35 144
0 144 0 38 35 37 34 -38 38 -37 38 -133 3 -132 4 -42 -33z"/>
<path d="M5863 4489 l-43 -41 0 -87 0 -87 58 -57 c32 -31 63 -57 70 -57 18 0
16 328 -2 353 -20 26 -37 21 -83 -24z"/>
<path d="M6068 4511 c-16 -15 -18 -39 -18 -189 0 -120 3 -172 11 -172 6 0 40
29 76 64 l65 65 -5 86 c-4 84 -5 87 -43 126 -42 43 -60 47 -86 20z"/>
<path d="M7156 4490 c-36 -40 -36 -40 -36 -132 l0 -92 55 -53 c84 -82 85 -81
85 110 0 131 -3 167 -16 185 -22 32 -47 27 -88 -18z"/>
<path d="M7807 4492 l-37 -38 0 -95 0 -95 54 -53 c30 -29 59 -50 65 -47 14 9
15 320 1 347 -16 29 -42 23 -83 -19z"/>
<path d="M6147 4195 c-38 -35 -66 -69 -62 -75 7 -11 487 -15 499 -3 3 4 -24
38 -61 75 l-67 68 -121 0 -120 -1 -68 -64z"/>
<path d="M6795 4199 c-36 -34 -65 -68 -65 -75 0 -12 44 -14 250 -14 202 0 250
3 250 13 0 8 -29 42 -64 75 l-64 62 -121 0 -120 0 -66 -61z"/>
<path d="M5259 3711 c-48 -39 -16 -161 41 -161 27 0 52 36 57 84 5 38 2 48
-20 70 -31 31 -47 32 -78 7z"/>
<path d="M6733 3723 c-14 -5 -17 -41 -7 -67 7 -19 64 -22 82 -4 21 21 14 58
-14 68 -27 11 -42 11 -61 3z"/>
<path d="M5536 2005 c-9 -26 -7 -32 5 -12 6 10 9 21 6 23 -2 3 -7 -2 -11 -11z"/>
<path d="M5302 1810 c0 -14 2 -19 5 -12 2 6 2 18 0 25 -3 6 -5 1 -5 -13z"/>
</g>
</svg>
